<svg viewBox="0 0 404 404" xmlns="http://www.w3.org/2000/svg" fill-rule="evenodd" clip-rule="evenodd" stroke-linejoin="round" stroke-miterlimit="2">
  <path fill="none" d="M0 .002h403.164v403.165H0z"/>
  <path d="M379.322 66.49c0-23.54-19.111-42.65-42.651-42.65H66.49c-23.54 0-42.65 19.11-42.65 42.65v270.18c0 23.54 19.11 42.65 42.65 42.65h270.18c23.54 0 42.65-19.11 42.65-42.65V66.49z" fill="#ac3636"/>
  <path d="M88.674 133.342c1.624 0 3.248.541 4.33 1.082 4.33 1.624 27.06 19.255 31.932 49.027 0 0-4.866 16.694-17.317 34.015 0 0 7.584 14.73 37.356 44.501 30.313 29.772 45.47 35.483 45.47 35.483 17.322-12.45 31.444-17.825 31.444-17.825 30.314 4.871 47.884 28.905 49.508 33.236 5.955 13.533-15.865 26.767-15.865 26.767-5.413 2.166-11.368 3.248-17.864 3.248-48.176 0-106.34-60.106-109.587-63.354-1.624-1.624-83.984-79.697-63.414-127.873 0 0 11.557-18.307 24.007-18.307m39.407 146.18zM88.674 122.516c-16.78 0-29.42 18.307-32.127 22.096l-1.082 1.082-.542 1.624c-23.276 53.59 55.836 130.039 65.58 139.782 7.578 7.578 65.741 66.602 117.165 66.602 8.12 0 15.157-1.623 21.653-4.33l1.624-.541 1.082-1.083c4.872-3.79 27.775-19.73 19.114-39.218-3.248-7.578-24.067-33.777-57.628-39.19l-2.165-.542-2.165.542c-1.624.541-14.123 5.375-30.362 16.201-5.413-2.706-18.946-13.289-36.809-30.61-17.322-17.323-29.777-30.428-32.484-35.84 10.285-16.24 15.151-31.851 15.693-32.934l.541-2.165-.541-2.165c-5.413-33.561-30.85-53.898-38.428-57.687-2.165-1.083-4.871-1.624-8.12-1.624z" fill="#bababa" fill-rule="nonzero"/>
  <path d="M90.19 129.818c1.623 0 3.247.541 4.33 1.083 4.33 1.623 30.313 24.9 35.185 54.672 0 0-2.707 12.45-15.157 29.771 0 0 2.707 12.45 32.479 42.222 30.313 29.772 42.763 32.479 42.763 32.479 17.322-12.45 30.313-15.157 30.313-15.157 30.313 4.872 53.59 30.855 55.213 35.185 5.955 13.533-17.321 32.479-17.321 32.479-5.414 2.165-11.368 3.247-17.864 3.247-48.176 0-112.05-62.25-115.298-65.498-1.624-1.624-83.361-83.902-62.792-132.079 0 0 15.698-18.404 28.148-18.404M90.19 118.99c-16.78 0-33.56 18.405-36.267 22.194l-1.083 1.083-.541 1.624c-23.276 53.59 55.213 134.244 64.957 143.988 7.578 7.578 71.452 68.746 122.876 68.746 8.12 0 15.157-1.624 21.653-4.33l1.624-.542 1.082-1.083c4.872-3.789 29.23-25.441 20.57-44.928-3.248-7.579-29.772-35.727-63.333-41.14l-2.165-.541-2.166.541c-1.623.542-12.99 2.707-29.23 13.533-5.413-2.707-16.24-10.285-34.102-27.607-17.322-17.321-24.9-28.148-27.607-33.56 10.285-16.24 12.991-27.607 13.533-28.69l.54-2.165-.54-2.165c-5.413-33.561-34.103-59.544-41.681-63.333-2.165-1.083-4.872-1.624-8.12-1.624z" fill="#bababa" fill-rule="nonzero"/>
  <g>
    <path d="M230.733 136.275c-.279-4.743-1.674-8.37-4.464-10.881-3.069-2.511-6.417-3.627-10.044-3.627-4.464 0-7.812 1.395-10.323 4.185-2.511 3.069-3.627 6.417-3.627 10.044 0 2.511.558 5.301 1.953 7.533 1.395 2.511 4.743 5.022 10.044 6.975l16.74 6.696c10.602 4.186 17.857 9.766 22.042 16.74 3.906 6.976 5.859 14.788 5.859 23.158 0 5.86-1.116 11.44-3.07 16.462-2.231 5.3-5.3 9.765-8.927 13.671-3.627 3.906-8.092 6.975-13.393 9.207-5.3 2.232-10.88 3.348-17.02 3.348-11.438 0-21.204-3.627-29.016-10.88-3.906-3.628-6.975-8.092-9.486-13.393-2.511-5.022-3.627-11.44-3.906-18.415h26.785c.558 3.906 1.953 7.534 4.185 10.882 1.953 3.348 5.859 5.022 11.16 5.022 4.185 0 7.812-1.395 11.16-4.185 3.07-2.511 4.743-6.418 4.743-11.16 0-3.907-1.116-7.255-3.069-10.045-1.953-2.79-5.859-5.301-11.16-7.254l-13.671-5.022c-8.929-3.348-15.904-8.37-20.926-15.066-5.3-6.418-7.812-14.509-7.812-23.995 0-5.86 1.116-11.44 3.348-16.74 2.232-5.022 5.301-9.487 9.207-13.114 3.627-3.627 8.091-6.696 13.114-8.649 5.022-1.953 10.323-2.79 16.182-2.79 5.86 0 11.16 1.116 16.182 3.07 4.743 1.952 8.929 5.021 12.556 8.648 3.627 3.627 6.417 8.092 8.37 13.114 1.953 5.3 3.069 10.602 3.069 16.461h-26.785zM273.16 96.656V53.69h28.459v42.967h17.577v22.32H301.62v78.401c0 3.348.279 5.86 1.116 7.813.558 1.953 1.674 3.348 3.069 4.185 1.395.837 3.348 1.395 5.58 1.674 1.953.279 4.743.279 7.812.279v26.784h-11.718c-6.417 0-11.997-1.116-16.183-3.069-4.464-1.953-8.09-4.743-10.602-7.812a28.79 28.79 0 01-5.58-10.881c-1.395-3.906-1.953-7.812-1.953-11.44v-85.933h-14.23v-22.32h14.23z" fill="#f1f1f1" fill-rule="nonzero"/>
  </g>
</svg>
